<svg xmlns="http://www.w3.org/2000/svg" width="40.559" height="41.905" viewBox="0 0 40.559 41.905">
  <g id="Group_176368" data-name="Group 176368" transform="translate(-0.845 -0.5)">
    <path id="Vector" d="M9.034,17.42a3.57,3.57,0,0,0-.648,0,8.73,8.73,0,1,1,.648,0Z" transform="translate(6.695 2)" fill="none" stroke="#fff" stroke-linecap="round" stroke-linejoin="round" stroke-width="3"/>
    <path id="Vector-2" data-name="Vector" d="M.255,0A6.869,6.869,0,0,1,7.129,6.874,6.883,6.883,0,0,1,.511,13.747a2.218,2.218,0,0,0-.511,0" transform="translate(29.712 5.928)" fill="none" stroke="#fff" stroke-linecap="round" stroke-linejoin="round" stroke-width="3"/>
    <path id="Vector-3" data-name="Vector" d="M3.564,2.7c-4.753,3.182-4.753,8.366,0,11.528,5.4,3.614,14.258,3.614,19.659,0,4.753-3.182,4.753-8.366,0-11.528C17.842-.9,8.985-.9,3.564,2.7Z" transform="translate(2.345 23.971)" fill="none" stroke="#fff" stroke-linecap="round" stroke-linejoin="round" stroke-width="3"/>
    <path id="Vector-4" data-name="Vector" d="M0,11.783a9.5,9.5,0,0,0,3.849-1.709,4.974,4.974,0,0,0,0-8.386A9.767,9.767,0,0,0,.059,0" transform="translate(33.757 25.567)" fill="none" stroke="#fff" stroke-linecap="round" stroke-linejoin="round" stroke-width="3"/>
  </g>
</svg>
